<svg width="25" height="24" viewBox="0 0 25 24" fill="none" xmlns="http://www.w3.org/2000/svg">
<path d="M22.5 12.6667C22.4123 12.6672 22.3253 12.6504 22.2441 12.6172C22.1629 12.584 22.089 12.5351 22.0267 12.4733L12.5 2.94001L2.97335 12.4733C2.84582 12.5826 2.68177 12.6396 2.51398 12.6331C2.3462 12.6267 2.18704 12.5571 2.06831 12.4384C1.94958 12.3197 1.88002 12.1605 1.87354 11.9927C1.86706 11.8249 1.92413 11.6609 2.03335 11.5333L12.0334 1.53334C12.1583 1.40917 12.3272 1.33948 12.5034 1.33948C12.6795 1.33948 12.8484 1.40917 12.9733 1.53334L22.9733 11.5333C23.0651 11.6269 23.1272 11.7455 23.1519 11.8742C23.1767 12.0029 23.1629 12.136 23.1124 12.2569C23.0619 12.3779 22.9769 12.4812 22.868 12.5541C22.7591 12.627 22.6311 12.6661 22.5 12.6667V12.6667Z" fill="#BDBDBD"/>
<path d="M10.5 15.375H9.875V16V22.0417H5.83333C5.64547 22.0417 5.4653 21.9671 5.33247 21.8342C5.19963 21.7014 5.125 21.5212 5.125 21.3334V13.4783L12.5013 6.07742L19.875 13.4327V21.3334C19.875 21.5212 19.8004 21.7014 19.6675 21.8342C19.5347 21.9671 19.3545 22.0417 19.1667 22.0417H15.125V16V15.375H14.5H10.5Z" stroke="#BDBDBD" stroke-width="1.25"/>
</svg>
