<svg width="25" height="24" viewBox="0 0 25 24" fill="none" xmlns="http://www.w3.org/2000/svg">
<path d="M5.00677 20.25C5.00379 20.2499 4.99773 20.2496 4.98898 20.249C4.96791 20.2475 4.9329 20.2441 4.88892 20.2368C4.79742 20.2215 4.68687 20.1924 4.58541 20.1417C4.48688 20.0924 4.41117 20.0303 4.35841 19.9512C4.30879 19.8767 4.25 19.7438 4.25 19.5C4.25 18.9426 4.55041 17.6353 5.71783 16.4678C6.86327 15.3224 8.90817 14.25 12.5 14.25C16.0918 14.25 18.1367 15.3224 19.2822 16.4678C20.4496 17.6353 20.75 18.9426 20.75 19.5C20.75 19.7438 20.6912 19.8767 20.6416 19.9512C20.5888 20.0303 20.5131 20.0924 20.4146 20.1417C20.3131 20.1924 20.2026 20.2215 20.1111 20.2368C20.0671 20.2441 20.0321 20.2475 20.011 20.249C20.0023 20.2496 19.9962 20.2499 19.9932 20.25H5.00677ZM15.1517 10.1517C14.4484 10.8549 13.4946 11.25 12.5 11.25C11.5054 11.25 10.5516 10.8549 9.84835 10.1517C9.14509 9.44839 8.75 8.49456 8.75 7.5C8.75 6.50544 9.14509 5.55161 9.84835 4.84835C10.5516 4.14509 11.5054 3.75 12.5 3.75C13.4946 3.75 14.4484 4.14509 15.1517 4.84835C15.8549 5.55161 16.25 6.50544 16.25 7.5C16.25 8.49456 15.8549 9.44839 15.1517 10.1517Z" stroke="#BDBDBD" stroke-width="1.5"/>
</svg>
