<svg width="30" height="30" viewBox="0 0 30 30" fill="none" xmlns="http://www.w3.org/2000/svg">
<path d="M30 20C30 25.5228 25.5228 30 20 30L0 30L2.62268e-06 -2.62268e-06L20 -8.74228e-07C25.5229 -3.91405e-07 30 4.47715 30 10L30 20Z" fill="#8f8371"/>
<path d="M9 14L14 14L14 9C14 8.45 14.45 8 15 8C15.55 8 16 8.45 16 9L16 14L21 14C21.55 14 22 14.45 22 15C22 15.55 21.55 16 21 16L16 16L16 21C16 21.55 15.55 22 15 22C14.45 22 14 21.55 14 21L14 16L9 16C8.45 16 8 15.55 8 15C8 14.45 8.45 14 9 14Z" fill="#ffffff"/>
</svg>
