<svg width="35" height="34" viewBox="0 0 35 34" fill="none" xmlns="http://www.w3.org/2000/svg">
<path d="M34.0488 22.5543C34.0488 28.7184 29.0519 33.7153 22.8878 33.7153L0.565681 33.7153L0.565684 0.232182L22.8878 0.232184C29.0519 0.232185 34.0488 5.22916 34.0488 11.3932L34.0488 22.5543Z" fill="#8F8371"/>
<path d="M10.6108 15.8575L16.1913 15.8575L16.1913 10.277C16.1913 9.66316 16.6935 9.16091 17.3074 9.16091C17.9212 9.16091 18.4235 9.66316 18.4235 10.277L18.4235 15.8575L24.004 15.8575C24.6179 15.8575 25.1201 16.3598 25.1201 16.9736C25.1201 17.5875 24.6179 18.0897 24.004 18.0897L18.4235 18.0897L18.4235 23.6703C18.4235 24.2841 17.9212 24.7864 17.3074 24.7864C16.6935 24.7864 16.1913 24.2841 16.1913 23.6703L16.1913 18.0897L10.6108 18.0897C9.9969 18.0897 9.49465 17.5875 9.49465 16.9736C9.49465 16.3598 9.9969 15.8575 10.6108 15.8575Z" fill="white" stroke="#8F8371"/>
</svg>
