<svg width="24" height="24" viewBox="0 0 24 24" fill="none" xmlns="http://www.w3.org/2000/svg">
<path d="M13.0733 12.0001L16.3133 8.76008C16.4225 8.63255 16.4796 8.4685 16.4731 8.30071C16.4667 8.13293 16.3971 7.97377 16.2784 7.85504C16.1596 7.73631 16.0005 7.66676 15.8327 7.66028C15.6649 7.6538 15.5009 7.71087 15.3733 7.82008L12.1333 11.0267L8.87333 7.76675C8.7458 7.65753 8.58175 7.60046 8.41396 7.60694C8.24618 7.61342 8.08702 7.68298 7.96829 7.80171C7.84956 7.92044 7.78 8.0796 7.77352 8.24738C7.76704 8.41517 7.82411 8.57922 7.93333 8.70675L11.1867 12.0001L8 15.1467C7.93021 15.2065 7.87353 15.2801 7.83351 15.3628C7.7935 15.4455 7.77101 15.5356 7.76746 15.6274C7.76392 15.7192 7.77939 15.8107 7.81291 15.8963C7.84642 15.9818 7.89726 16.0595 7.96223 16.1245C8.0272 16.1895 8.1049 16.2403 8.19045 16.2738C8.276 16.3074 8.36755 16.3228 8.45937 16.3193C8.55118 16.3157 8.64127 16.2932 8.72398 16.2532C8.80669 16.2132 8.88023 16.1565 8.94 16.0867L12.12 12.9067L15.28 16.0667C15.4075 16.176 15.5716 16.233 15.7394 16.2266C15.9072 16.2201 16.0663 16.1505 16.185 16.0318C16.3038 15.9131 16.3733 15.7539 16.3798 15.5861C16.3863 15.4183 16.3292 15.2543 16.22 15.1267L13.0733 12.0001Z" fill="white"/>
<path d="M12 22.6667C9.89032 22.6667 7.82803 22.0411 6.0739 20.869C4.31978 19.6969 2.9526 18.031 2.14527 16.0819C1.33793 14.1329 1.1267 11.9882 1.53827 9.91902C1.94985 7.84989 2.96575 5.94927 4.45751 4.45751C5.94927 2.96575 7.84989 1.94985 9.91902 1.53827C11.9882 1.1267 14.1329 1.33793 16.0819 2.14527C18.031 2.9526 19.6969 4.31978 20.869 6.0739C22.0411 7.82803 22.6667 9.89032 22.6667 12C22.6667 14.829 21.5428 17.5421 19.5425 19.5425C17.5421 21.5428 14.829 22.6667 12 22.6667ZM12 2.66665C10.154 2.66665 8.34952 3.21404 6.81466 4.2396C5.2798 5.26516 4.08353 6.72283 3.37711 8.42827C2.67069 10.1337 2.48586 12.0103 2.84599 13.8208C3.20612 15.6313 4.09503 17.2944 5.40032 18.5996C6.70561 19.9049 8.36865 20.7939 10.1791 21.154C11.9896 21.5141 13.8663 21.3293 15.5717 20.6229C17.2771 19.9164 18.7348 18.7202 19.7604 17.1853C20.7859 15.6504 21.3333 13.8459 21.3333 12C21.3333 9.52463 20.35 7.15066 18.5996 5.40032C16.8493 3.64998 14.4753 2.66665 12 2.66665Z" fill="white"/>
</svg>
