<svg width="35" height="34" viewBox="0 0 35 34" fill="none" xmlns="http://www.w3.org/2000/svg">
<path d="M34.3596 22.3221C34.3596 28.4862 29.3626 33.4832 23.1986 33.4832L0.876472 33.4832L0.876475 4.7022e-06L23.1986 6.65366e-06C29.3627 7.19255e-06 34.3596 4.99698 34.3596 11.1611L34.3596 22.3221Z" fill="#FFCE89"/>
<path d="M10.9213 15.6255L16.5018 15.6255L16.5018 10.045C16.5018 9.4311 17.0041 8.92885 17.6179 8.92885C18.2318 8.92885 18.734 9.4311 18.734 10.045L18.734 15.6255L24.3146 15.6255C24.9284 15.6255 25.4307 16.1277 25.4307 16.7416C25.4307 17.3554 24.9284 17.8577 24.3146 17.8577L18.734 17.8577L18.734 23.4382C18.734 24.0521 18.2318 24.5543 17.6179 24.5543C17.0041 24.5543 16.5018 24.0521 16.5018 23.4382L16.5018 17.8577L10.9213 17.8577C10.3074 17.8577 9.8052 17.3554 9.8052 16.7416C9.8052 16.1277 10.3074 15.6255 10.9213 15.6255Z" fill="#847A6C"/>
</svg>
