<svg width="24" height="24" viewBox="0 0 24 24" fill="none" xmlns="http://www.w3.org/2000/svg">
<path d="M13.1629 12L16.6729 8.49001C16.7912 8.35185 16.853 8.17413 16.846 7.99236C16.839 7.81059 16.7636 7.63817 16.635 7.50955C16.5064 7.38092 16.3339 7.30557 16.1522 7.29855C15.9704 7.29153 15.7927 7.35336 15.6545 7.47168L12.1445 10.9456L8.61287 7.4139C8.4747 7.29558 8.29698 7.23375 8.11522 7.24077C7.93345 7.24779 7.76103 7.32314 7.6324 7.45177C7.50378 7.58039 7.42843 7.75282 7.42141 7.93458C7.41439 8.11635 7.47621 8.29407 7.59453 8.43223L11.119 12L7.66676 15.4089C7.59115 15.4736 7.52975 15.5533 7.4864 15.6429C7.44305 15.7325 7.41869 15.8301 7.41484 15.9296C7.411 16.029 7.42776 16.1282 7.46407 16.2209C7.50038 16.3136 7.55546 16.3978 7.62584 16.4681C7.69623 16.5385 7.7804 16.5936 7.87308 16.6299C7.96576 16.6662 8.06494 16.683 8.1644 16.6791C8.26387 16.6753 8.36146 16.6509 8.45107 16.6076C8.54067 16.5642 8.62034 16.5028 8.68509 16.4272L12.1301 12.9822L15.5534 16.4056C15.6916 16.5239 15.8693 16.5857 16.0511 16.5787C16.2328 16.5717 16.4053 16.4963 16.5339 16.3677C16.6625 16.2391 16.7379 16.0666 16.7449 15.8849C16.7519 15.7031 16.6901 15.5254 16.5718 15.3872L13.1629 12Z" fill="#909090"/>
<path d="M11.9999 23.5555C9.71442 23.5555 7.48028 22.8777 5.57997 21.608C3.67967 20.3382 2.19857 18.5335 1.32396 16.422C0.449343 14.3105 0.220504 11.9871 0.666378 9.74552C1.11225 7.50396 2.21281 5.44496 3.82889 3.82889C5.44496 2.21281 7.50396 1.11225 9.74552 0.666378C11.9871 0.220504 14.3105 0.449343 16.422 1.32396C18.5335 2.19857 20.3382 3.67967 21.608 5.57997C22.8777 7.48028 23.5555 9.71442 23.5555 11.9999C23.5555 15.0646 22.338 18.0038 20.1709 20.1709C18.0038 22.338 15.0646 23.5555 11.9999 23.5555V23.5555ZM11.9999 1.88879C10.0001 1.88879 8.04523 2.48179 6.38246 3.59282C4.7197 4.70384 3.42373 6.28298 2.65845 8.13054C1.89316 9.97811 1.69293 12.0111 2.08307 13.9725C2.47321 15.9338 3.4362 17.7355 4.85026 19.1495C6.26433 20.5636 8.06595 21.5266 10.0273 21.9167C11.9887 22.3069 14.0217 22.1066 15.8693 21.3413C17.7168 20.5761 19.296 19.2801 20.407 17.6173C21.518 15.9546 22.111 13.9997 22.111 11.9999C22.111 9.31826 21.0457 6.74646 19.1495 4.85026C17.2533 2.95406 14.6815 1.88879 11.9999 1.88879V1.88879Z" fill="#909090"/>
</svg>
