<svg width="19" height="19" viewBox="0 0 19 19" fill="none" xmlns="http://www.w3.org/2000/svg">
<g clip-path="url(#clip0_71_1213)">
<path d="M7.12492 17.4166C7.56214 17.4166 7.91658 17.0621 7.91658 16.6249C7.91658 16.1877 7.56214 15.8333 7.12492 15.8333C6.68769 15.8333 6.33325 16.1877 6.33325 16.6249C6.33325 17.0621 6.68769 17.4166 7.12492 17.4166Z" stroke="black" stroke-width="2" stroke-linecap="round" stroke-linejoin="round"/>
<path d="M15.8334 17.4166C16.2706 17.4166 16.6251 17.0621 16.6251 16.6249C16.6251 16.1877 16.2706 15.8333 15.8334 15.8333C15.3962 15.8333 15.0417 16.1877 15.0417 16.6249C15.0417 17.0621 15.3962 17.4166 15.8334 17.4166Z" stroke="black" stroke-width="2" stroke-linecap="round" stroke-linejoin="round"/>
<path d="M6.08003 11.3921L4.75 4.75003H18.2084L16.9417 11.3921C16.8693 11.7566 16.671 12.084 16.3816 12.317C16.0921 12.55 15.7299 12.6738 15.3584 12.6667H7.66337C7.29184 12.6738 6.92964 12.55 6.64018 12.317C6.35071 12.084 6.15243 11.7566 6.08003 11.3921Z" fill="black"/>
<path d="M0.791748 0.791748H3.95841L6.08008 11.3922C6.15247 11.7566 6.35076 12.0841 6.64022 12.3171C6.92968 12.5501 7.29188 12.6739 7.66341 12.6667H15.3584C15.7299 12.6739 16.0921 12.5501 16.3816 12.3171C16.6711 12.0841 16.8694 11.7566 16.9417 11.3922L18.2084 4.75008H4.75008" stroke="black" stroke-width="1.25" stroke-linecap="round" stroke-linejoin="round"/>
</g>
<defs>
<clipPath id="clip0_71_1213">
<rect width="19" height="19" fill="white"/>
</clipPath>
</defs>
</svg>
