<svg width="42" height="35" viewBox="0 0 42 35" fill="none" xmlns="http://www.w3.org/2000/svg">
<path d="M0.357685 10.3788L1.78347 11.1585L2.56328 12.5843C2.62249 12.6925 2.70972 12.7829 2.81585 12.8458C2.92197 12.9087 3.04307 12.9419 3.16644 12.9419C3.28981 12.9419 3.4109 12.9087 3.51703 12.8458C3.62315 12.7829 3.71039 12.6925 3.76959 12.5843L4.54932 11.1585L5.97509 10.3788C6.08333 10.3196 6.17364 10.2324 6.23655 10.1262C6.29946 10.0201 6.33266 9.89903 6.33266 9.77566C6.33266 9.65229 6.29946 9.53119 6.23655 9.42507C6.17364 9.31894 6.08333 9.23171 5.97509 9.1725L4.54932 8.39269L3.76959 6.96691C3.71039 6.85867 3.62315 6.76836 3.51703 6.70545C3.4109 6.64254 3.28981 6.60934 3.16644 6.60934C3.04307 6.60934 2.92197 6.64254 2.81585 6.70545C2.70972 6.76836 2.62249 6.85867 2.56328 6.96691L1.78347 8.39269L0.357685 9.1725C0.249451 9.23171 0.159142 9.31894 0.0962307 9.42507C0.0333189 9.53119 0.00012207 9.65229 0.00012207 9.77566C0.00012207 9.89903 0.0333189 10.0201 0.0962307 10.1262C0.159142 10.2324 0.249451 10.3196 0.357685 10.3788V10.3788ZM2.61993 9.5024C2.73529 9.43932 2.83014 9.34448 2.89321 9.22912L3.16649 8.7296L3.43966 9.22912C3.50273 9.34448 3.59758 9.43932 3.71294 9.5024L4.21245 9.77568L3.71294 10.0488C3.59758 10.1119 3.50273 10.2068 3.43966 10.3221L3.16649 10.8216L2.89321 10.3221C2.83014 10.2068 2.73529 10.1119 2.61993 10.0488L2.12042 9.77568L2.61993 9.5024Z" fill="#4982DF"/>
<path d="M6.98256 3.76947L8.40834 4.5492L9.18806 5.97497C9.24727 6.08321 9.33451 6.17351 9.44063 6.23643C9.54675 6.29934 9.66785 6.33253 9.79122 6.33253C9.91459 6.33253 10.0357 6.29934 10.1418 6.23643C10.2479 6.17351 10.3352 6.08321 10.3944 5.97497L11.1742 4.5492L12.6 3.76947C12.7082 3.71026 12.7985 3.62303 12.8614 3.5169C12.9243 3.41078 12.9575 3.28968 12.9575 3.16631C12.9575 3.04295 12.9243 2.92185 12.8614 2.81573C12.7985 2.7096 12.7082 2.62236 12.6 2.56316L11.1742 1.78334L10.3944 0.357563C10.3352 0.249329 10.2479 0.15902 10.1418 0.0961083C10.0357 0.0331965 9.91459 0 9.79122 0C9.66785 0 9.54675 0.0331965 9.44063 0.0961083C9.33451 0.15902 9.24727 0.249329 9.18806 0.357563L8.40834 1.78334L6.98256 2.56316C6.87433 2.62236 6.78402 2.7096 6.72111 2.81573C6.6582 2.92185 6.625 3.04295 6.625 3.16631C6.625 3.28968 6.6582 3.41078 6.72111 3.5169C6.78402 3.62303 6.87433 3.71026 6.98256 3.76947V3.76947ZM9.2448 2.89305C9.36016 2.82998 9.45501 2.73514 9.51808 2.61977L9.79125 2.12026L10.0645 2.61977C10.1276 2.73514 10.2225 2.82998 10.3378 2.89305L10.8373 3.16634L10.3378 3.43951C10.2224 3.50258 10.1276 3.59742 10.0645 3.71279L9.79125 4.2123L9.51808 3.71279C9.45501 3.59742 9.36017 3.50258 9.2448 3.43951L8.74529 3.16634L9.2448 2.89305Z" fill="#4982DF"/>
<path d="M31.9688 15.375H6.875V16.75H31.9688C32.2422 16.7503 32.5043 16.859 32.6976 17.0524C32.891 17.2457 32.9997 17.5078 33 17.7812V20.875H32.8281C31.9623 20.876 31.1323 21.2204 30.5201 21.8326C29.9079 22.4448 29.5635 23.2748 29.5625 24.1406V24.3125H27.2676C27.421 23.9904 27.5004 23.638 27.5 23.2812V21.2188C27.4993 20.5808 27.2455 19.9692 26.7944 19.5181C26.3433 19.067 25.7317 18.8132 25.0938 18.8125H23.0312C22.3933 18.8132 21.7817 19.067 21.3306 19.5181C20.8795 19.9692 20.6257 20.5808 20.625 21.2188V23.2812C20.6246 23.638 20.704 23.9904 20.8574 24.3125H19.7656C19.268 24.3125 18.7769 24.4263 18.3301 24.6453C17.8832 24.8643 17.4924 25.1826 17.1875 25.5759C16.8826 25.1826 16.4918 24.8643 16.0449 24.6453C15.5981 24.4263 15.107 24.3125 14.6094 24.3125H13.5176C13.671 23.9904 13.7504 23.638 13.75 23.2812V21.2188C13.7493 20.5808 13.4955 19.9692 13.0444 19.5181C12.5933 19.067 11.9817 18.8132 11.3438 18.8125H9.28125C8.64329 18.8132 8.03167 19.067 7.58056 19.5181C7.12946 19.9692 6.87571 20.5808 6.875 21.2188V23.2812C6.87458 23.638 6.95398 23.9904 7.10738 24.3125H4.8125V24.1406C4.81152 23.2748 4.46714 22.4448 3.85493 21.8326C3.24272 21.2204 2.41267 20.876 1.54688 20.875H1.375V17.7812C1.3753 17.5078 1.48404 17.2457 1.67738 17.0524C1.87071 16.859 2.13284 16.7503 2.40625 16.75H5.5V15.375H2.40625C1.76829 15.3757 1.15667 15.6295 0.705563 16.0806C0.254459 16.5317 0.000714223 17.1433 0 17.7812V33.9375C0 34.1198 0.0724328 34.2947 0.201364 34.4236C0.330295 34.5526 0.505164 34.625 0.6875 34.625H4.125C4.30734 34.625 4.4822 34.5526 4.61114 34.4236C4.74007 34.2947 4.8125 34.1198 4.8125 33.9375V32.5625H25.4375V31.1875H4.8125V29.8125H29.5625V31.1875H26.8125V32.5625H29.5625V33.9375C29.5625 34.1198 29.6349 34.2947 29.7639 34.4236C29.8928 34.5526 30.0677 34.625 30.25 34.625H33.6875C33.8698 34.625 34.0447 34.5526 34.1736 34.4236C34.3026 34.2947 34.375 34.1198 34.375 33.9375V17.7812C34.3743 17.1433 34.1205 16.5317 33.6694 16.0806C33.2183 15.6295 32.6067 15.3757 31.9688 15.375V15.375ZM22 23.2812V21.2188C22.0003 20.9453 22.109 20.6832 22.3024 20.4899C22.4957 20.2965 22.7578 20.1878 23.0312 20.1875H25.0938C25.3672 20.1878 25.6293 20.2965 25.8226 20.4899C26.016 20.6832 26.1247 20.9453 26.125 21.2188V23.2812C26.1247 23.5547 26.016 23.8168 25.8226 24.0101C25.6293 24.2035 25.3672 24.3122 25.0938 24.3125H23.0312C22.7578 24.3122 22.4957 24.2035 22.3024 24.0101C22.109 23.8168 22.0003 23.5547 22 23.2812V23.2812ZM8.25 23.2812V21.2188C8.2503 20.9453 8.35904 20.6832 8.55238 20.4899C8.74571 20.2965 9.00784 20.1878 9.28125 20.1875H11.3438C11.6172 20.1878 11.8793 20.2965 12.0726 20.4899C12.266 20.6832 12.3747 20.9453 12.375 21.2188V23.2812C12.3747 23.5547 12.266 23.8168 12.0726 24.0101C11.8793 24.2035 11.6172 24.3122 11.3438 24.3125H9.28125C9.00784 24.3122 8.74571 24.2035 8.55238 24.0101C8.35904 23.8168 8.2503 23.5547 8.25 23.2812V23.2812ZM3.4375 33.25H1.375V22.25H1.54688C2.04813 22.2506 2.52869 22.4499 2.88313 22.8044C3.23756 23.1588 3.43694 23.6394 3.4375 24.1406V33.25ZM4.8125 25.6875H14.6094C15.1106 25.6881 15.5912 25.8874 15.9456 26.2419C16.3001 26.5963 16.4994 27.0769 16.5 27.5781V28.4375H4.8125V25.6875ZM17.875 28.4375V27.5781C17.8756 27.0769 18.0749 26.5963 18.4294 26.2419C18.7838 25.8874 19.2644 25.6881 19.7656 25.6875H29.5625V28.4375H17.875ZM33 33.25H30.9375V24.1406C30.9381 23.6394 31.1374 23.1588 31.4919 22.8044C31.8463 22.4499 32.3269 22.2506 32.8281 22.25H33V33.25Z" fill="#4982DF"/>
<path fill-rule="evenodd" clip-rule="evenodd" d="M15.125 14H16.5V12.625H39.875V15.375H35.75V16.75H39.875V22.25H35.75V23.625H39.875V33.25H35.75V34.625H40.5625C40.7448 34.625 40.9197 34.5526 41.0486 34.4236C41.1776 34.2947 41.25 34.1198 41.25 33.9375V3H39.875H33H31.625H24.75H23.375H16.5H15.125V14ZM31.625 4.375H16.5V11.25H31.625V4.375ZM37.125 11.25H39.875V4.375H37.125V11.25ZM35.75 11.25V4.375H33V11.25H35.75Z" fill="#4982DF"/>
<path d="M17.875 6.4375H19.25V9.1875H17.875V6.4375Z" fill="#4982DF"/>
<path d="M35.75 27.0625H37.125V29.8125H35.75V27.0625Z" fill="#4982DF"/>
</svg>
